<?xml version="1.0" standalone="no"?>
<!DOCTYPE svg PUBLIC "-//W3C//DTD SVG 20010904//EN"
 "http://www.w3.org/TR/2001/REC-SVG-20010904/DTD/svg10.dtd">
<svg version="1.0" xmlns="http://www.w3.org/2000/svg"
 width="172.000000pt" height="56.000000pt" viewBox="0 0 172.000000 56.000000"
 preserveAspectRatio="xMidYMid meet">

<g transform="translate(0.000000,56.000000) scale(0.100000,-0.100000)"
fill="#000000" stroke="none">
<path d="M138 368 c-34 -14 -48 -53 -48 -132 0 -90 15 -134 48 -143 37 -9 301
-10 334 0 35 9 43 37 43 149 -1 130 -3 131 -197 135 -97 1 -163 -2 -180 -9z
m183 -105 c27 -16 49 -30 49 -33 0 -6 -94 -60 -104 -60 -3 0 -6 27 -6 60 0 33
3 60 6 60 3 0 28 -12 55 -27z"/>
</g>
</svg>
